<svg width="50" height="50" viewBox="0 0 50 50" fill="none" xmlns="http://www.w3.org/2000/svg">
<path d="M25 0C20.0555 0 15.222 1.46622 11.1108 4.21326C6.99952 6.96029 3.79521 10.8648 1.90302 15.4329C0.0108321 20.0011 -0.484251 25.0277 0.480379 29.8772C1.44501 34.7268 3.82603 39.1813 7.32234 42.6777C10.8187 46.174 15.2732 48.555 20.1227 49.5196C24.9723 50.4842 29.9989 49.9892 34.5671 48.097C39.1352 46.2048 43.0397 43.0005 45.7867 38.8892C48.5338 34.778 50 29.9445 50 25C50 18.3696 47.3661 12.0107 42.6777 7.32233C37.9893 2.63392 31.6304 0 25 0V0ZM34.5375 12.7312H31.0802C28.3719 12.7312 27.8448 14.0198 27.8448 15.9104V20.0771H34.3104V26.6062H27.8521V43.3667H21.1V26.6104H15.4625V20.0812H21.1V15.2656C21.1 9.67708 24.5146 6.63437 29.499 6.63437L34.5375 6.64166V12.7312Z" fill="#FFA14D"/>
</svg>
