<svg width="50" height="50" viewBox="0 0 50 50" fill="none" xmlns="http://www.w3.org/2000/svg">
<circle cx="25" cy="25.0002" r="25" fill="#FFA14D"/>
<path d="M24.9996 8.33371C29.528 8.33371 30.093 8.35038 31.8696 8.43371C33.6446 8.51704 34.8529 8.79537 35.9163 9.20871C37.0163 9.63204 37.9429 10.2054 38.8696 11.1304C39.7171 11.9635 40.3729 12.9713 40.7913 14.0837C41.2029 15.1453 41.4829 16.3553 41.5663 18.1303C41.6446 19.907 41.6663 20.472 41.6663 25.0003C41.6663 29.5286 41.6496 30.0936 41.5663 31.8703C41.4829 33.6453 41.2029 34.8536 40.7913 35.9169C40.3741 37.0299 39.7181 38.0379 38.8696 38.8702C38.0362 39.7174 37.0285 40.3732 35.9163 40.7919C34.8546 41.2036 33.6446 41.4836 31.8696 41.5669C30.093 41.6452 29.528 41.6669 24.9996 41.6669C20.4713 41.6669 19.9063 41.6502 18.1297 41.5669C16.3547 41.4836 15.1463 41.2036 14.083 40.7919C12.9702 40.3744 11.9622 39.7185 11.1297 38.8702C10.282 38.0372 9.62622 37.0294 9.20801 35.9169C8.79467 34.8553 8.51634 33.6453 8.43301 31.8703C8.35467 30.0936 8.33301 29.5286 8.33301 25.0003C8.33301 20.472 8.34967 19.907 8.43301 18.1303C8.51634 16.3537 8.79467 15.147 9.20801 14.0837C9.62506 12.9707 10.281 11.9626 11.1297 11.1304C11.9625 10.2824 12.9704 9.62659 14.083 9.20871C15.1463 8.79537 16.353 8.51704 18.1297 8.43371C19.9063 8.35538 20.4713 8.33371 24.9996 8.33371ZM24.9996 16.667C22.7895 16.667 20.6699 17.545 19.1071 19.1078C17.5443 20.6706 16.6663 22.7902 16.6663 25.0003C16.6663 27.2104 17.5443 29.33 19.1071 30.8928C20.6699 32.4556 22.7895 33.3336 24.9996 33.3336C27.2098 33.3336 29.3294 32.4556 30.8922 30.8928C32.455 29.33 33.3329 27.2104 33.3329 25.0003C33.3329 22.7902 32.455 20.6706 30.8922 19.1078C29.3294 17.545 27.2098 16.667 24.9996 16.667ZM35.8329 16.2503C35.8329 15.6978 35.6134 15.1679 35.2227 14.7772C34.832 14.3865 34.3021 14.167 33.7496 14.167C33.1971 14.167 32.6672 14.3865 32.2765 14.7772C31.8858 15.1679 31.6663 15.6978 31.6663 16.2503C31.6663 16.8029 31.8858 17.3328 32.2765 17.7235C32.6672 18.1142 33.1971 18.3337 33.7496 18.3337C34.3021 18.3337 34.832 18.1142 35.2227 17.7235C35.6134 17.3328 35.8329 16.8029 35.8329 16.2503ZM24.9996 20.0003C26.3257 20.0003 27.5975 20.5271 28.5352 21.4648C29.4728 22.4025 29.9996 23.6742 29.9996 25.0003C29.9996 26.3264 29.4728 27.5981 28.5352 28.5358C27.5975 29.4735 26.3257 30.0003 24.9996 30.0003C23.6736 30.0003 22.4018 29.4735 21.4641 28.5358C20.5264 27.5981 19.9996 26.3264 19.9996 25.0003C19.9996 23.6742 20.5264 22.4025 21.4641 21.4648C22.4018 20.5271 23.6736 20.0003 24.9996 20.0003Z" fill="white"/>
</svg>
