<svg width="20" height="20" viewBox="0 0 20 20" fill="none" xmlns="http://www.w3.org/2000/svg">
<path d="M19.2848 15.6566L16.2831 12.6479C15.9848 12.361 15.5848 12.2042 15.171 12.212C14.7571 12.2197 14.3633 12.3914 14.0759 12.6892L12.5635 14.2039L12.2647 14.0375C10.9278 13.3457 9.70218 12.4572 8.6289 11.4017C7.57382 10.3225 6.68576 9.09191 5.99408 7.75053C5.9382 7.6485 5.88475 7.55133 5.8313 7.45781L6.84441 6.44237L7.34368 5.94194C7.64112 5.65328 7.81228 5.25868 7.81979 4.84428C7.8273 4.42989 7.67056 4.02935 7.38377 3.73009L4.38209 0.721444C4.08397 0.434617 3.68417 0.277854 3.27053 0.285598C2.85689 0.293341 2.46324 0.464958 2.17607 0.762742L1.32574 1.61299L1.34882 1.63606C1.05905 2.0121 0.825407 2.4282 0.655186 2.87135C0.499723 3.27327 0.395645 3.69321 0.345421 4.12121C-0.0505926 7.41408 1.45086 10.4227 5.52518 14.5039C11.158 20.1483 15.6976 19.7268 15.8932 19.7013C16.322 19.6502 16.7425 19.5445 17.1444 19.3867C17.5846 19.2154 17.9974 18.9809 18.3701 18.6907L18.3883 18.7078L19.2447 17.8672C19.5395 17.5773 19.7088 17.1834 19.7163 16.7701C19.7238 16.3568 19.5689 15.957 19.2848 15.6566Z" fill="white"/>
</svg>
