<svg width="50" height="50" viewBox="0 0 50 50" fill="none" xmlns="http://www.w3.org/2000/svg">
<path d="M25 0C20.0555 0 15.222 1.46622 11.1108 4.21326C6.99953 6.96029 3.79521 10.8648 1.90302 15.4329C0.0108321 20.0011 -0.484251 25.0277 0.480379 29.8772C1.44501 34.7268 3.82603 39.1813 7.32234 42.6777C10.8187 46.174 15.2732 48.555 20.1228 49.5196C24.9723 50.4842 29.9989 49.9892 34.5671 48.097C39.1352 46.2048 43.0397 43.0005 45.7867 38.8892C48.5338 34.778 50 29.9445 50 25C50 18.3696 47.3661 12.0107 42.6777 7.32233C37.9893 2.63392 31.6304 0 25 0V0ZM37.6813 27.7083C38.8878 28.8034 40.0372 29.9598 41.125 31.1729C41.5996 31.7161 42.0128 32.31 42.3573 32.9437C42.8323 33.8646 42.4031 34.875 41.5792 34.9302L36.4583 34.9302C35.8489 34.9757 35.2372 34.8795 34.6712 34.649C34.1052 34.4186 33.6002 34.0603 33.1958 33.6021C32.4875 32.8812 31.8302 32.1115 31.1479 31.3667C30.8773 31.0544 30.5674 30.7785 30.226 30.5458C30.0967 30.4318 29.9418 30.3508 29.7744 30.3096C29.607 30.2683 29.4322 30.2682 29.2647 30.3091C29.0972 30.35 28.9422 30.4308 28.8126 30.5446C28.6831 30.6583 28.583 30.8017 28.5208 30.9625C28.1582 31.7086 27.9735 32.5287 27.9813 33.3583C27.925 34.5656 27.5646 34.8812 26.35 34.9385C23.8055 35.1372 21.2584 34.5891 19.0208 33.3615C17.0702 32.1868 15.3894 30.6136 14.0885 28.7448C11.5183 25.1296 9.34204 21.2499 7.59689 17.1719C7.18751 16.2594 7.48647 15.7719 8.49272 15.7531C10.1594 15.7208 11.8354 15.725 13.5073 15.7531C13.8197 15.7568 14.1229 15.8597 14.373 16.047C14.6232 16.2342 14.8074 16.4961 14.899 16.7948C15.786 19.0178 16.9265 21.1311 18.2979 23.0927C18.6397 23.633 19.075 24.1081 19.5833 24.4958C19.6823 24.5979 19.8073 24.671 19.9448 24.7071C20.0823 24.7433 20.2271 24.7413 20.3635 24.7012C20.4999 24.6611 20.6227 24.5844 20.7188 24.4796C20.8148 24.3747 20.8804 24.2456 20.9083 24.1062C21.0759 23.684 21.1754 23.2378 21.2031 22.7844C21.3577 21.2435 21.3305 19.6897 21.1219 18.1552C21.0901 17.717 20.9098 17.3026 20.6107 16.9807C20.3117 16.6587 19.9118 16.4484 19.4771 16.3844C18.9886 16.2917 19.0604 16.1104 19.2979 15.8312C19.4742 15.5805 19.7103 15.3777 19.9848 15.2413C20.2593 15.1049 20.5635 15.0391 20.8698 15.05L26.6563 15.05C27.5688 15.2292 27.7729 15.6385 27.8969 16.5573L27.8969 22.9875C27.8865 23.3427 28.075 24.3969 28.7136 24.6292C29.225 24.7979 29.5625 24.3875 29.8688 24.0635C31.2007 22.5666 32.3001 20.8779 33.1302 19.0542C33.5208 18.2604 33.8594 17.4396 34.1854 16.6177C34.2661 16.3399 34.4405 16.0987 34.6791 15.9352C34.9177 15.7716 35.2056 15.6959 35.4938 15.7208L41.0656 15.7271C41.2307 15.7227 41.3959 15.7325 41.5594 15.7562C42.4969 15.9167 42.7563 16.3208 42.4656 17.2375C41.9379 18.6281 41.1902 19.9248 40.251 21.0781C39.3198 22.3646 38.3271 23.6073 37.4052 24.9C36.5625 26.0833 36.6292 26.6781 37.6813 27.7083Z" fill="#FFA14D"/>
</svg>
