<svg width="47" height="49" viewBox="0 0 47 49" fill="none" xmlns="http://www.w3.org/2000/svg">
<path d="M15.9648 31H9.27246V29.8584L12.5879 26.2422C13.0664 25.709 13.4059 25.2646 13.6064 24.9092C13.8115 24.5492 13.9141 24.1891 13.9141 23.8291C13.9141 23.3551 13.7796 22.9723 13.5107 22.6807C13.2464 22.389 12.8887 22.2432 12.4375 22.2432C11.8997 22.2432 11.4827 22.4072 11.1865 22.7354C10.8903 23.0635 10.7422 23.5124 10.7422 24.082H9.08105C9.08105 23.4759 9.21777 22.9313 9.49121 22.4482C9.76921 21.9606 10.1634 21.5824 10.6738 21.3135C11.1888 21.0446 11.7812 20.9102 12.4512 20.9102C13.4173 20.9102 14.1784 21.154 14.7344 21.6416C15.2949 22.1247 15.5752 22.7946 15.5752 23.6514C15.5752 24.1481 15.4339 24.6699 15.1514 25.2168C14.8734 25.7591 14.4154 26.3766 13.7773 27.0693L11.3438 29.6738H15.9648V31ZM22.8486 27.4521H24.0859V28.7852H22.8486V31H21.1875V28.7852H16.8877L16.8398 27.7734L21.1328 21.0469H22.8486V27.4521ZM18.583 27.4521H21.1875V23.2959L21.0645 23.5146L18.583 27.4521ZM25.7607 31.8545H24.4551L28.3721 21.0469H29.6777L25.7607 31.8545ZM37.3477 21.9697L33.3691 31H31.626L35.5977 22.3799H30.4502V21.0469H37.3477V21.9697Z" fill="#FFA14D"/>
<path d="M0.638672 8L1.13173 14.5H7.04839" stroke="#FFA14D"/>
<path d="M23.0201 48C35.7115 48 46 37.4834 46 24.5105C46 11.5377 35.7115 1.02109 23.0201 1.02109C18.0015 0.751095 6.69643 2.96504 1.625 13.9808" stroke="#FFA14D"/>
</svg>
