<svg width="0" height="0" class="hidden">
  <symbol fill="none" xmlns="http://www.w3.org/2000/svg" viewBox="0 0 30 24" id="metr">
    <path d="M19.863 0L15 15.332 10.137 0C4.352 1.988 0 7.382 0 13.566c0 3.724 1.52 7.159 3.978 9.69h7.05l.74-3.205c-8.424-3.3-6.83-13.527-3.777-15.196.362.109 5.673 18.326 5.673 18.326h2.671S21.647 4.964 22.01 4.855c3.054 1.67 4.646 11.896-3.777 15.196l.74 3.205h7.05C28.481 20.725 30 17.29 30 13.566 30 7.382 25.648 1.988 19.863 0z" fill="red" fill-opacity=".6"></path>
  </symbol>
  <symbol fill="none" xmlns="http://www.w3.org/2000/svg" viewBox="0 0 24 24" id="phone-call">
    <path d="M21.285 17.657l-3.002-3.01a1.562 1.562 0 00-2.207.042l-1.513 1.515-.298-.166a15.05 15.05 0 01-3.636-2.636A15.165 15.165 0 017.994 9.75c-.056-.102-.11-.2-.163-.293l1.013-1.016.5-.5a1.57 1.57 0 00.04-2.212L6.382 2.721a1.561 1.561 0 00-2.206.042l-.85.85.023.023c-.29.376-.524.792-.694 1.235-.155.402-.26.822-.31 1.25-.396 3.293 1.106 6.302 5.18 10.383 5.633 5.644 10.173 5.223 10.368 5.197.429-.05.85-.157 1.251-.314a4.87 4.87 0 001.226-.696l.018.017.857-.84a1.579 1.579 0 00.04-2.211z" fill="#fff"></path>
  </symbol>
  <symbol fill="none" xmlns="http://www.w3.org/2000/svg" viewBox="0 0 48 49" id="clock">
    <path d="M16.438 31H9.745v-1.142l3.316-3.616c.478-.533.818-.977 1.018-1.333.205-.36.308-.72.308-1.08 0-.474-.135-.857-.404-1.148-.264-.292-.622-.438-1.073-.438-.538 0-.955.164-1.25.492-.297.329-.445.777-.445 1.347H9.554c0-.606.136-1.15.41-1.634a2.87 2.87 0 011.182-1.134c.515-.27 1.108-.404 1.778-.404.966 0 1.727.244 2.283.732.56.483.84 1.153.84 2.01 0 .496-.14 1.018-.423 1.565-.278.542-.736 1.16-1.374 1.852l-2.434 2.605h4.621V31zm6.883-3.548h1.238v1.333H23.32V31h-1.66v-2.215h-4.3l-.049-1.012 4.293-6.726h1.716v6.405zm-4.265 0h2.604v-4.156l-.123.219-2.481 3.937zm7.177 4.402h-1.305l3.917-10.807h1.305l-3.917 10.808zM37.82 21.97L33.842 31h-1.743l3.971-8.62h-5.147v-1.333h6.897v.923z" fill="#FFA14D"></path>
    <path d="M23.696 48C36.566 48 47 37.483 47 24.51 47 11.539 36.567 1.021 23.696 1.021 18.607.751 7.143 2.965 2 13.981" stroke="#FFA14D"></path>
    <path d="M1 8l.5 6.5h6" stroke="#FFA14D"></path>
  </symbol>
  <symbol xmlns="http://www.w3.org/2000/svg" viewBox="0 0 32 16" id="arrow">
    <path d="M30.723 8.804a1 1 0 00.003-1.414L24.38 1.006a1 1 0 10-1.418 1.41l5.642 5.675-5.672 5.639a1 1 0 001.41 1.418l6.382-6.344zM.015 9l30 .095.005-2L.02 7 .015 9z" ></path>
  </symbol>
</svg>