<svg width="0" height="0" class="hidden">
  <symbol fill="none" xmlns="http://www.w3.org/2000/svg" viewBox="0 0 47 49" id="clock">
    <path d="M15.965 31H9.272v-1.142l3.316-3.616c.478-.533.818-.977 1.018-1.333.206-.36.308-.72.308-1.08 0-.474-.134-.857-.403-1.148-.265-.292-.622-.438-1.073-.438-.538 0-.955.164-1.252.492-.296.329-.444.777-.444 1.347H9.081c0-.606.137-1.15.41-1.634a2.869 2.869 0 011.183-1.134c.515-.27 1.107-.404 1.777-.404.966 0 1.727.244 2.283.732.56.483.841 1.153.841 2.01 0 .496-.141 1.018-.424 1.565-.278.542-.736 1.16-1.374 1.852l-2.433 2.605h4.62V31zm6.884-3.548h1.237v1.333h-1.237V31h-1.662v-2.215h-4.3l-.047-1.012 4.293-6.726h1.716v6.405zm-4.266 0h2.605v-4.156l-.123.219-2.482 3.937zm7.178 4.402h-1.306l3.917-10.807h1.306L25.76 31.855zm11.587-9.884L33.369 31h-1.743l3.972-8.62H30.45v-1.333h6.898v.923z" fill="#FFA14D"></path>
    <path d="M.639 8l.493 6.5h5.916" stroke="#FFA14D"></path>
    <path d="M23.02 48C35.712 48 46 37.483 46 24.51 46 11.539 35.712 1.021 23.02 1.021 18.002.751 6.696 2.965 1.625 13.981" stroke="#FFA14D"></path>
  </symbol>
    <symbol fill="none" xmlns="http://www.w3.org/2000/svg" viewBox="0 0 20 20" id="phone">
    <path d="M19.285 15.657l-3.002-3.01a1.562 1.562 0 00-2.207.042l-1.513 1.515-.298-.167a15.05 15.05 0 01-3.636-2.635A15.165 15.165 0 015.994 7.75c-.056-.103-.11-.2-.163-.293l1.013-1.016.5-.5a1.57 1.57 0 00.04-2.212L4.382.721a1.561 1.561 0 00-2.206.042l-.85.85.023.023c-.29.376-.524.792-.694 1.235-.155.402-.26.822-.31 1.25-.396 3.293 1.106 6.302 5.18 10.383 5.633 5.644 10.173 5.223 10.368 5.197.429-.05.85-.157 1.251-.314a4.87 4.87 0 001.226-.696l.018.017.857-.84a1.579 1.579 0 00.04-2.211z" fill="#fff"></path>
  </symbol>
</svg>